G04 #@! TF.GenerationSoftware,KiCad,Pcbnew,(5.1.5)-3*
G04 #@! TF.CreationDate,2020-03-16T13:29:13+00:00*
G04 #@! TF.ProjectId,pcb schem,70636220-7363-4686-956d-2e6b69636164,rev?*
G04 #@! TF.SameCoordinates,Original*
G04 #@! TF.FileFunction,Other,Fab,Top*
%FSLAX46Y46*%
G04 Gerber Fmt 4.6, Leading zero omitted, Abs format (unit mm)*
G04 Created by KiCad (PCBNEW (5.1.5)-3) date 2020-03-16 13:29:13*
%MOMM*%
%LPD*%
G04 APERTURE LIST*
%ADD10C,0.100000*%
%ADD11C,0.150000*%
G04 APERTURE END LIST*
D10*
X131850000Y-83500000D02*
X125850000Y-83500000D01*
X125850000Y-84140000D02*
X125850000Y-83500000D01*
X131850000Y-84140000D02*
X125850000Y-84140000D01*
X136210000Y-83500000D02*
X134390000Y-83500000D01*
X136210000Y-84140000D02*
X136210000Y-83500000D01*
X136210000Y-84140000D02*
X134390000Y-84140000D01*
X131850000Y-86040000D02*
X125850000Y-86040000D01*
X125850000Y-86680000D02*
X125850000Y-86040000D01*
X131850000Y-86680000D02*
X125850000Y-86680000D01*
X136210000Y-86040000D02*
X134390000Y-86040000D01*
X136210000Y-86680000D02*
X136210000Y-86040000D01*
X136210000Y-86680000D02*
X134390000Y-86680000D01*
X131850000Y-88580000D02*
X125850000Y-88580000D01*
X125850000Y-89220000D02*
X125850000Y-88580000D01*
X131850000Y-89220000D02*
X125850000Y-89220000D01*
X136210000Y-88580000D02*
X134390000Y-88580000D01*
X136210000Y-89220000D02*
X136210000Y-88580000D01*
X136210000Y-89220000D02*
X134390000Y-89220000D01*
X131850000Y-91120000D02*
X125850000Y-91120000D01*
X125850000Y-91760000D02*
X125850000Y-91120000D01*
X131850000Y-91760000D02*
X125850000Y-91760000D01*
X136210000Y-91120000D02*
X134390000Y-91120000D01*
X136210000Y-91760000D02*
X136210000Y-91120000D01*
X136210000Y-91760000D02*
X134390000Y-91760000D01*
X131850000Y-93660000D02*
X125850000Y-93660000D01*
X125850000Y-94300000D02*
X125850000Y-93660000D01*
X131850000Y-94300000D02*
X125850000Y-94300000D01*
X136210000Y-93660000D02*
X134390000Y-93660000D01*
X136210000Y-94300000D02*
X136210000Y-93660000D01*
X136210000Y-94300000D02*
X134390000Y-94300000D01*
X131850000Y-96200000D02*
X125850000Y-96200000D01*
X125850000Y-96840000D02*
X125850000Y-96200000D01*
X131850000Y-96840000D02*
X125850000Y-96840000D01*
X136210000Y-96200000D02*
X134390000Y-96200000D01*
X136210000Y-96840000D02*
X136210000Y-96200000D01*
X136210000Y-96840000D02*
X134390000Y-96840000D01*
X131850000Y-98740000D02*
X125850000Y-98740000D01*
X125850000Y-99380000D02*
X125850000Y-98740000D01*
X131850000Y-99380000D02*
X125850000Y-99380000D01*
X136210000Y-98740000D02*
X134390000Y-98740000D01*
X136210000Y-99380000D02*
X136210000Y-98740000D01*
X136210000Y-99380000D02*
X134390000Y-99380000D01*
X131850000Y-101280000D02*
X125850000Y-101280000D01*
X125850000Y-101920000D02*
X125850000Y-101280000D01*
X131850000Y-101920000D02*
X125850000Y-101920000D01*
X136210000Y-101280000D02*
X134390000Y-101280000D01*
X136210000Y-101920000D02*
X136210000Y-101280000D01*
X136210000Y-101920000D02*
X134390000Y-101920000D01*
X134390000Y-102235000D02*
X133755000Y-102870000D01*
X134390000Y-82550000D02*
X134390000Y-102235000D01*
X131850000Y-82550000D02*
X134390000Y-82550000D01*
X131850000Y-102870000D02*
X131850000Y-82550000D01*
X133755000Y-102870000D02*
X131850000Y-102870000D01*
X106090000Y-85110000D02*
X106090000Y-87610000D01*
X107090000Y-85110000D02*
X106090000Y-85110000D01*
X107090000Y-87610000D02*
X107090000Y-85110000D01*
X106090000Y-87610000D02*
X107090000Y-87610000D01*
X109542000Y-85564000D02*
X111286000Y-87308000D01*
X109694000Y-85411000D02*
X111438000Y-87155000D01*
X106090000Y-90190000D02*
X106090000Y-92690000D01*
X107090000Y-90190000D02*
X106090000Y-90190000D01*
X107090000Y-92690000D02*
X107090000Y-90190000D01*
X106090000Y-92690000D02*
X107090000Y-92690000D01*
X109542000Y-90644000D02*
X111286000Y-92389000D01*
X109694000Y-90491000D02*
X111438000Y-92236000D01*
X107940000Y-93980000D02*
X107940000Y-83820000D01*
X112940000Y-93980000D02*
X112940000Y-83820000D01*
X114040000Y-93980000D02*
X114040000Y-83820000D01*
X114040000Y-93980000D02*
X106090000Y-93980000D01*
X114540000Y-93480000D02*
X114040000Y-93980000D01*
X114540000Y-83820000D02*
X114540000Y-93480000D01*
X106090000Y-83820000D02*
X114540000Y-83820000D01*
X106090000Y-93980000D02*
X106090000Y-83820000D01*
X111740000Y-86360000D02*
G75*
G03X111740000Y-86360000I-1250000J0D01*
G01*
X111740000Y-91440000D02*
G75*
G03X111740000Y-91440000I-1250000J0D01*
G01*
X117160000Y-69620000D02*
X117160000Y-63620000D01*
X116520000Y-63620000D02*
X117160000Y-63620000D01*
X116520000Y-69620000D02*
X116520000Y-63620000D01*
X117160000Y-73980000D02*
X117160000Y-72160000D01*
X116520000Y-73980000D02*
X117160000Y-73980000D01*
X116520000Y-73980000D02*
X116520000Y-72160000D01*
X114620000Y-69620000D02*
X114620000Y-63620000D01*
X113980000Y-63620000D02*
X114620000Y-63620000D01*
X113980000Y-69620000D02*
X113980000Y-63620000D01*
X114620000Y-73980000D02*
X114620000Y-72160000D01*
X113980000Y-73980000D02*
X114620000Y-73980000D01*
X113980000Y-73980000D02*
X113980000Y-72160000D01*
X112080000Y-69620000D02*
X112080000Y-63620000D01*
X111440000Y-63620000D02*
X112080000Y-63620000D01*
X111440000Y-69620000D02*
X111440000Y-63620000D01*
X112080000Y-73980000D02*
X112080000Y-72160000D01*
X111440000Y-73980000D02*
X112080000Y-73980000D01*
X111440000Y-73980000D02*
X111440000Y-72160000D01*
X111125000Y-72160000D02*
X110490000Y-71525000D01*
X118110000Y-72160000D02*
X111125000Y-72160000D01*
X118110000Y-69620000D02*
X118110000Y-72160000D01*
X110490000Y-69620000D02*
X118110000Y-69620000D01*
X110490000Y-71525000D02*
X110490000Y-69620000D01*
X143830000Y-69620000D02*
X143830000Y-63620000D01*
X143190000Y-63620000D02*
X143830000Y-63620000D01*
X143190000Y-69620000D02*
X143190000Y-63620000D01*
X143830000Y-73980000D02*
X143830000Y-72160000D01*
X143190000Y-73980000D02*
X143830000Y-73980000D01*
X143190000Y-73980000D02*
X143190000Y-72160000D01*
X141290000Y-69620000D02*
X141290000Y-63620000D01*
X140650000Y-63620000D02*
X141290000Y-63620000D01*
X140650000Y-69620000D02*
X140650000Y-63620000D01*
X141290000Y-73980000D02*
X141290000Y-72160000D01*
X140650000Y-73980000D02*
X141290000Y-73980000D01*
X140650000Y-73980000D02*
X140650000Y-72160000D01*
X138750000Y-69620000D02*
X138750000Y-63620000D01*
X138110000Y-63620000D02*
X138750000Y-63620000D01*
X138110000Y-69620000D02*
X138110000Y-63620000D01*
X138750000Y-73980000D02*
X138750000Y-72160000D01*
X138110000Y-73980000D02*
X138750000Y-73980000D01*
X138110000Y-73980000D02*
X138110000Y-72160000D01*
X137795000Y-72160000D02*
X137160000Y-71525000D01*
X144780000Y-72160000D02*
X137795000Y-72160000D01*
X144780000Y-69620000D02*
X144780000Y-72160000D01*
X137160000Y-69620000D02*
X144780000Y-69620000D01*
X137160000Y-71525000D02*
X137160000Y-69620000D01*
X131130000Y-69620000D02*
X131130000Y-63620000D01*
X130490000Y-63620000D02*
X131130000Y-63620000D01*
X130490000Y-69620000D02*
X130490000Y-63620000D01*
X131130000Y-73980000D02*
X131130000Y-72160000D01*
X130490000Y-73980000D02*
X131130000Y-73980000D01*
X130490000Y-73980000D02*
X130490000Y-72160000D01*
X128590000Y-69620000D02*
X128590000Y-63620000D01*
X127950000Y-63620000D02*
X128590000Y-63620000D01*
X127950000Y-69620000D02*
X127950000Y-63620000D01*
X128590000Y-73980000D02*
X128590000Y-72160000D01*
X127950000Y-73980000D02*
X128590000Y-73980000D01*
X127950000Y-73980000D02*
X127950000Y-72160000D01*
X126050000Y-69620000D02*
X126050000Y-63620000D01*
X125410000Y-63620000D02*
X126050000Y-63620000D01*
X125410000Y-69620000D02*
X125410000Y-63620000D01*
X126050000Y-73980000D02*
X126050000Y-72160000D01*
X125410000Y-73980000D02*
X126050000Y-73980000D01*
X125410000Y-73980000D02*
X125410000Y-72160000D01*
X125095000Y-72160000D02*
X124460000Y-71525000D01*
X132080000Y-72160000D02*
X125095000Y-72160000D01*
X132080000Y-69620000D02*
X132080000Y-72160000D01*
X124460000Y-69620000D02*
X132080000Y-69620000D01*
X124460000Y-71525000D02*
X124460000Y-69620000D01*
X136840000Y-114530000D02*
X136840000Y-120530000D01*
X137480000Y-120530000D02*
X136840000Y-120530000D01*
X137480000Y-114530000D02*
X137480000Y-120530000D01*
X136840000Y-110170000D02*
X136840000Y-111990000D01*
X137480000Y-110170000D02*
X136840000Y-110170000D01*
X137480000Y-110170000D02*
X137480000Y-111990000D01*
X139380000Y-114530000D02*
X139380000Y-120530000D01*
X140020000Y-120530000D02*
X139380000Y-120530000D01*
X140020000Y-114530000D02*
X140020000Y-120530000D01*
X139380000Y-110170000D02*
X139380000Y-111990000D01*
X140020000Y-110170000D02*
X139380000Y-110170000D01*
X140020000Y-110170000D02*
X140020000Y-111990000D01*
X141920000Y-114530000D02*
X141920000Y-120530000D01*
X142560000Y-120530000D02*
X141920000Y-120530000D01*
X142560000Y-114530000D02*
X142560000Y-120530000D01*
X141920000Y-110170000D02*
X141920000Y-111990000D01*
X142560000Y-110170000D02*
X141920000Y-110170000D01*
X142560000Y-110170000D02*
X142560000Y-111990000D01*
X142875000Y-111990000D02*
X143510000Y-112625000D01*
X135890000Y-111990000D02*
X142875000Y-111990000D01*
X135890000Y-114530000D02*
X135890000Y-111990000D01*
X143510000Y-114530000D02*
X135890000Y-114530000D01*
X143510000Y-112625000D02*
X143510000Y-114530000D01*
D11*
X127766904Y-81907142D02*
X127719285Y-81954761D01*
X127576428Y-82002380D01*
X127481190Y-82002380D01*
X127338333Y-81954761D01*
X127243095Y-81859523D01*
X127195476Y-81764285D01*
X127147857Y-81573809D01*
X127147857Y-81430952D01*
X127195476Y-81240476D01*
X127243095Y-81145238D01*
X127338333Y-81050000D01*
X127481190Y-81002380D01*
X127576428Y-81002380D01*
X127719285Y-81050000D01*
X127766904Y-81097619D01*
X128338333Y-82002380D02*
X128243095Y-81954761D01*
X128195476Y-81907142D01*
X128147857Y-81811904D01*
X128147857Y-81526190D01*
X128195476Y-81430952D01*
X128243095Y-81383333D01*
X128338333Y-81335714D01*
X128481190Y-81335714D01*
X128576428Y-81383333D01*
X128624047Y-81430952D01*
X128671666Y-81526190D01*
X128671666Y-81811904D01*
X128624047Y-81907142D01*
X128576428Y-81954761D01*
X128481190Y-82002380D01*
X128338333Y-82002380D01*
X129100238Y-81335714D02*
X129100238Y-82002380D01*
X129100238Y-81430952D02*
X129147857Y-81383333D01*
X129243095Y-81335714D01*
X129385952Y-81335714D01*
X129481190Y-81383333D01*
X129528809Y-81478571D01*
X129528809Y-82002380D01*
X130005000Y-81335714D02*
X130005000Y-82002380D01*
X130005000Y-81430952D02*
X130052619Y-81383333D01*
X130147857Y-81335714D01*
X130290714Y-81335714D01*
X130385952Y-81383333D01*
X130433571Y-81478571D01*
X130433571Y-82002380D01*
X130671666Y-82097619D02*
X131433571Y-82097619D01*
X131862142Y-81002380D02*
X131957380Y-81002380D01*
X132052619Y-81050000D01*
X132100238Y-81097619D01*
X132147857Y-81192857D01*
X132195476Y-81383333D01*
X132195476Y-81621428D01*
X132147857Y-81811904D01*
X132100238Y-81907142D01*
X132052619Y-81954761D01*
X131957380Y-82002380D01*
X131862142Y-82002380D01*
X131766904Y-81954761D01*
X131719285Y-81907142D01*
X131671666Y-81811904D01*
X131624047Y-81621428D01*
X131624047Y-81383333D01*
X131671666Y-81192857D01*
X131719285Y-81097619D01*
X131766904Y-81050000D01*
X131862142Y-81002380D01*
X133147857Y-82002380D02*
X132576428Y-82002380D01*
X132862142Y-82002380D02*
X132862142Y-81002380D01*
X132766904Y-81145238D01*
X132671666Y-81240476D01*
X132576428Y-81288095D01*
X133481190Y-82002380D02*
X134005000Y-81335714D01*
X133481190Y-81335714D02*
X134005000Y-82002380D01*
X134576428Y-81002380D02*
X134671666Y-81002380D01*
X134766904Y-81050000D01*
X134814523Y-81097619D01*
X134862142Y-81192857D01*
X134909761Y-81383333D01*
X134909761Y-81621428D01*
X134862142Y-81811904D01*
X134814523Y-81907142D01*
X134766904Y-81954761D01*
X134671666Y-82002380D01*
X134576428Y-82002380D01*
X134481190Y-81954761D01*
X134433571Y-81907142D01*
X134385952Y-81811904D01*
X134338333Y-81621428D01*
X134338333Y-81383333D01*
X134385952Y-81192857D01*
X134433571Y-81097619D01*
X134481190Y-81050000D01*
X134576428Y-81002380D01*
X135481190Y-81430952D02*
X135385952Y-81383333D01*
X135338333Y-81335714D01*
X135290714Y-81240476D01*
X135290714Y-81192857D01*
X135338333Y-81097619D01*
X135385952Y-81050000D01*
X135481190Y-81002380D01*
X135671666Y-81002380D01*
X135766904Y-81050000D01*
X135814523Y-81097619D01*
X135862142Y-81192857D01*
X135862142Y-81240476D01*
X135814523Y-81335714D01*
X135766904Y-81383333D01*
X135671666Y-81430952D01*
X135481190Y-81430952D01*
X135385952Y-81478571D01*
X135338333Y-81526190D01*
X135290714Y-81621428D01*
X135290714Y-81811904D01*
X135338333Y-81907142D01*
X135385952Y-81954761D01*
X135481190Y-82002380D01*
X135671666Y-82002380D01*
X135766904Y-81954761D01*
X135814523Y-81907142D01*
X135862142Y-81811904D01*
X135862142Y-81621428D01*
X135814523Y-81526190D01*
X135766904Y-81478571D01*
X135671666Y-81430952D01*
X133572380Y-95971904D02*
X132572380Y-95971904D01*
X133286666Y-95638571D01*
X132572380Y-95305238D01*
X133572380Y-95305238D01*
X133572380Y-94829047D02*
X132572380Y-94829047D01*
X132572380Y-94448095D01*
X132620000Y-94352857D01*
X132667619Y-94305238D01*
X132762857Y-94257619D01*
X132905714Y-94257619D01*
X133000952Y-94305238D01*
X133048571Y-94352857D01*
X133096190Y-94448095D01*
X133096190Y-94829047D01*
X132572380Y-93829047D02*
X133381904Y-93829047D01*
X133477142Y-93781428D01*
X133524761Y-93733809D01*
X133572380Y-93638571D01*
X133572380Y-93448095D01*
X133524761Y-93352857D01*
X133477142Y-93305238D01*
X133381904Y-93257619D01*
X132572380Y-93257619D01*
X132572380Y-92352857D02*
X132572380Y-92543333D01*
X132620000Y-92638571D01*
X132667619Y-92686190D01*
X132810476Y-92781428D01*
X133000952Y-92829047D01*
X133381904Y-92829047D01*
X133477142Y-92781428D01*
X133524761Y-92733809D01*
X133572380Y-92638571D01*
X133572380Y-92448095D01*
X133524761Y-92352857D01*
X133477142Y-92305238D01*
X133381904Y-92257619D01*
X133143809Y-92257619D01*
X133048571Y-92305238D01*
X133000952Y-92352857D01*
X132953333Y-92448095D01*
X132953333Y-92638571D01*
X133000952Y-92733809D01*
X133048571Y-92781428D01*
X133143809Y-92829047D01*
X132572380Y-91638571D02*
X132572380Y-91543333D01*
X132620000Y-91448095D01*
X132667619Y-91400476D01*
X132762857Y-91352857D01*
X132953333Y-91305238D01*
X133191428Y-91305238D01*
X133381904Y-91352857D01*
X133477142Y-91400476D01*
X133524761Y-91448095D01*
X133572380Y-91543333D01*
X133572380Y-91638571D01*
X133524761Y-91733809D01*
X133477142Y-91781428D01*
X133381904Y-91829047D01*
X133191428Y-91876666D01*
X132953333Y-91876666D01*
X132762857Y-91829047D01*
X132667619Y-91781428D01*
X132620000Y-91733809D01*
X132572380Y-91638571D01*
X132572380Y-90400476D02*
X132572380Y-90876666D01*
X133048571Y-90924285D01*
X133000952Y-90876666D01*
X132953333Y-90781428D01*
X132953333Y-90543333D01*
X133000952Y-90448095D01*
X133048571Y-90400476D01*
X133143809Y-90352857D01*
X133381904Y-90352857D01*
X133477142Y-90400476D01*
X133524761Y-90448095D01*
X133572380Y-90543333D01*
X133572380Y-90781428D01*
X133524761Y-90876666D01*
X133477142Y-90924285D01*
X132572380Y-89733809D02*
X132572380Y-89638571D01*
X132620000Y-89543333D01*
X132667619Y-89495714D01*
X132762857Y-89448095D01*
X132953333Y-89400476D01*
X133191428Y-89400476D01*
X133381904Y-89448095D01*
X133477142Y-89495714D01*
X133524761Y-89543333D01*
X133572380Y-89638571D01*
X133572380Y-89733809D01*
X133524761Y-89829047D01*
X133477142Y-89876666D01*
X133381904Y-89924285D01*
X133191428Y-89971904D01*
X132953333Y-89971904D01*
X132762857Y-89924285D01*
X132667619Y-89876666D01*
X132620000Y-89829047D01*
X132572380Y-89733809D01*
X116004761Y-97138095D02*
X116052380Y-96995238D01*
X116052380Y-96757142D01*
X116004761Y-96661904D01*
X115957142Y-96614285D01*
X115861904Y-96566666D01*
X115766666Y-96566666D01*
X115671428Y-96614285D01*
X115623809Y-96661904D01*
X115576190Y-96757142D01*
X115528571Y-96947619D01*
X115480952Y-97042857D01*
X115433333Y-97090476D01*
X115338095Y-97138095D01*
X115242857Y-97138095D01*
X115147619Y-97090476D01*
X115100000Y-97042857D01*
X115052380Y-96947619D01*
X115052380Y-96709523D01*
X115100000Y-96566666D01*
X116004761Y-95709523D02*
X116052380Y-95804761D01*
X116052380Y-95995238D01*
X116004761Y-96090476D01*
X115957142Y-96138095D01*
X115861904Y-96185714D01*
X115576190Y-96185714D01*
X115480952Y-96138095D01*
X115433333Y-96090476D01*
X115385714Y-95995238D01*
X115385714Y-95804761D01*
X115433333Y-95709523D01*
X116052380Y-95280952D02*
X115385714Y-95280952D01*
X115576190Y-95280952D02*
X115480952Y-95233333D01*
X115433333Y-95185714D01*
X115385714Y-95090476D01*
X115385714Y-94995238D01*
X116004761Y-94280952D02*
X116052380Y-94376190D01*
X116052380Y-94566666D01*
X116004761Y-94661904D01*
X115909523Y-94709523D01*
X115528571Y-94709523D01*
X115433333Y-94661904D01*
X115385714Y-94566666D01*
X115385714Y-94376190D01*
X115433333Y-94280952D01*
X115528571Y-94233333D01*
X115623809Y-94233333D01*
X115719047Y-94709523D01*
X115385714Y-93900000D02*
X116052380Y-93709523D01*
X115576190Y-93519047D01*
X116052380Y-93328571D01*
X115385714Y-93138095D01*
X116147619Y-92995238D02*
X116147619Y-92233333D01*
X115052380Y-92138095D02*
X115052380Y-91566666D01*
X116052380Y-91852380D02*
X115052380Y-91852380D01*
X116004761Y-90852380D02*
X116052380Y-90947619D01*
X116052380Y-91138095D01*
X116004761Y-91233333D01*
X115909523Y-91280952D01*
X115528571Y-91280952D01*
X115433333Y-91233333D01*
X115385714Y-91138095D01*
X115385714Y-90947619D01*
X115433333Y-90852380D01*
X115528571Y-90804761D01*
X115623809Y-90804761D01*
X115719047Y-91280952D01*
X116052380Y-90376190D02*
X115385714Y-90376190D01*
X115576190Y-90376190D02*
X115480952Y-90328571D01*
X115433333Y-90280952D01*
X115385714Y-90185714D01*
X115385714Y-90090476D01*
X116052380Y-89757142D02*
X115385714Y-89757142D01*
X115480952Y-89757142D02*
X115433333Y-89709523D01*
X115385714Y-89614285D01*
X115385714Y-89471428D01*
X115433333Y-89376190D01*
X115528571Y-89328571D01*
X116052380Y-89328571D01*
X115528571Y-89328571D02*
X115433333Y-89280952D01*
X115385714Y-89185714D01*
X115385714Y-89042857D01*
X115433333Y-88947619D01*
X115528571Y-88900000D01*
X116052380Y-88900000D01*
X116052380Y-88423809D02*
X115385714Y-88423809D01*
X115052380Y-88423809D02*
X115100000Y-88471428D01*
X115147619Y-88423809D01*
X115100000Y-88376190D01*
X115052380Y-88423809D01*
X115147619Y-88423809D01*
X115385714Y-87947619D02*
X116052380Y-87947619D01*
X115480952Y-87947619D02*
X115433333Y-87900000D01*
X115385714Y-87804761D01*
X115385714Y-87661904D01*
X115433333Y-87566666D01*
X115528571Y-87519047D01*
X116052380Y-87519047D01*
X116052380Y-86614285D02*
X115528571Y-86614285D01*
X115433333Y-86661904D01*
X115385714Y-86757142D01*
X115385714Y-86947619D01*
X115433333Y-87042857D01*
X116004761Y-86614285D02*
X116052380Y-86709523D01*
X116052380Y-86947619D01*
X116004761Y-87042857D01*
X115909523Y-87090476D01*
X115814285Y-87090476D01*
X115719047Y-87042857D01*
X115671428Y-86947619D01*
X115671428Y-86709523D01*
X115623809Y-86614285D01*
X116052380Y-85995238D02*
X116004761Y-86090476D01*
X115909523Y-86138095D01*
X115052380Y-86138095D01*
X116147619Y-85852380D02*
X116147619Y-85090476D01*
X115052380Y-84661904D02*
X115052380Y-84566666D01*
X115100000Y-84471428D01*
X115147619Y-84423809D01*
X115242857Y-84376190D01*
X115433333Y-84328571D01*
X115671428Y-84328571D01*
X115861904Y-84376190D01*
X115957142Y-84423809D01*
X116004761Y-84471428D01*
X116052380Y-84566666D01*
X116052380Y-84661904D01*
X116004761Y-84757142D01*
X115957142Y-84804761D01*
X115861904Y-84852380D01*
X115671428Y-84900000D01*
X115433333Y-84900000D01*
X115242857Y-84852380D01*
X115147619Y-84804761D01*
X115100000Y-84757142D01*
X115052380Y-84661904D01*
X116052380Y-83376190D02*
X116052380Y-83947619D01*
X116052380Y-83661904D02*
X115052380Y-83661904D01*
X115195238Y-83757142D01*
X115290476Y-83852380D01*
X115338095Y-83947619D01*
X116052380Y-83042857D02*
X115385714Y-82519047D01*
X115385714Y-83042857D02*
X116052380Y-82519047D01*
X115052380Y-81947619D02*
X115052380Y-81852380D01*
X115100000Y-81757142D01*
X115147619Y-81709523D01*
X115242857Y-81661904D01*
X115433333Y-81614285D01*
X115671428Y-81614285D01*
X115861904Y-81661904D01*
X115957142Y-81709523D01*
X116004761Y-81757142D01*
X116052380Y-81852380D01*
X116052380Y-81947619D01*
X116004761Y-82042857D01*
X115957142Y-82090476D01*
X115861904Y-82138095D01*
X115671428Y-82185714D01*
X115433333Y-82185714D01*
X115242857Y-82138095D01*
X115147619Y-82090476D01*
X115100000Y-82042857D01*
X115052380Y-81947619D01*
X115147619Y-81233333D02*
X115100000Y-81185714D01*
X115052380Y-81090476D01*
X115052380Y-80852380D01*
X115100000Y-80757142D01*
X115147619Y-80709523D01*
X115242857Y-80661904D01*
X115338095Y-80661904D01*
X115480952Y-80709523D01*
X116052380Y-81280952D01*
X116052380Y-80661904D01*
X105434761Y-92876190D02*
X105482380Y-92780952D01*
X105482380Y-92590476D01*
X105434761Y-92495238D01*
X105339523Y-92447619D01*
X105291904Y-92447619D01*
X105196666Y-92495238D01*
X105149047Y-92590476D01*
X105149047Y-92733333D01*
X105101428Y-92828571D01*
X105006190Y-92876190D01*
X104958571Y-92876190D01*
X104863333Y-92828571D01*
X104815714Y-92733333D01*
X104815714Y-92590476D01*
X104863333Y-92495238D01*
X105434761Y-91638095D02*
X105482380Y-91733333D01*
X105482380Y-91923809D01*
X105434761Y-92019047D01*
X105339523Y-92066666D01*
X104958571Y-92066666D01*
X104863333Y-92019047D01*
X104815714Y-91923809D01*
X104815714Y-91733333D01*
X104863333Y-91638095D01*
X104958571Y-91590476D01*
X105053809Y-91590476D01*
X105149047Y-92066666D01*
X105482380Y-91161904D02*
X104815714Y-91161904D01*
X105006190Y-91161904D02*
X104910952Y-91114285D01*
X104863333Y-91066666D01*
X104815714Y-90971428D01*
X104815714Y-90876190D01*
X104815714Y-90638095D02*
X105482380Y-90400000D01*
X104815714Y-90161904D01*
X105482380Y-89638095D02*
X105434761Y-89733333D01*
X105387142Y-89780952D01*
X105291904Y-89828571D01*
X105006190Y-89828571D01*
X104910952Y-89780952D01*
X104863333Y-89733333D01*
X104815714Y-89638095D01*
X104815714Y-89495238D01*
X104863333Y-89400000D01*
X104910952Y-89352380D01*
X105006190Y-89304761D01*
X105291904Y-89304761D01*
X105387142Y-89352380D01*
X105434761Y-89400000D01*
X105482380Y-89495238D01*
X105482380Y-89638095D01*
X104482380Y-88971428D02*
X104482380Y-88352380D01*
X104863333Y-88685714D01*
X104863333Y-88542857D01*
X104910952Y-88447619D01*
X104958571Y-88400000D01*
X105053809Y-88352380D01*
X105291904Y-88352380D01*
X105387142Y-88400000D01*
X105434761Y-88447619D01*
X105482380Y-88542857D01*
X105482380Y-88828571D01*
X105434761Y-88923809D01*
X105387142Y-88971428D01*
X105577619Y-88161904D02*
X105577619Y-87400000D01*
X104482380Y-86685714D02*
X104482380Y-87161904D01*
X104958571Y-87209523D01*
X104910952Y-87161904D01*
X104863333Y-87066666D01*
X104863333Y-86828571D01*
X104910952Y-86733333D01*
X104958571Y-86685714D01*
X105053809Y-86638095D01*
X105291904Y-86638095D01*
X105387142Y-86685714D01*
X105434761Y-86733333D01*
X105482380Y-86828571D01*
X105482380Y-87066666D01*
X105434761Y-87161904D01*
X105387142Y-87209523D01*
X104815714Y-86304761D02*
X105482380Y-86066666D01*
X104815714Y-85828571D01*
X105482380Y-84923809D02*
X105482380Y-85495238D01*
X105482380Y-85209523D02*
X104482380Y-85209523D01*
X104625238Y-85304761D01*
X104720476Y-85400000D01*
X104768095Y-85495238D01*
X119467142Y-73013095D02*
X119514761Y-73060714D01*
X119562380Y-73203571D01*
X119562380Y-73298809D01*
X119514761Y-73441666D01*
X119419523Y-73536904D01*
X119324285Y-73584523D01*
X119133809Y-73632142D01*
X118990952Y-73632142D01*
X118800476Y-73584523D01*
X118705238Y-73536904D01*
X118610000Y-73441666D01*
X118562380Y-73298809D01*
X118562380Y-73203571D01*
X118610000Y-73060714D01*
X118657619Y-73013095D01*
X119562380Y-72441666D02*
X119514761Y-72536904D01*
X119467142Y-72584523D01*
X119371904Y-72632142D01*
X119086190Y-72632142D01*
X118990952Y-72584523D01*
X118943333Y-72536904D01*
X118895714Y-72441666D01*
X118895714Y-72298809D01*
X118943333Y-72203571D01*
X118990952Y-72155952D01*
X119086190Y-72108333D01*
X119371904Y-72108333D01*
X119467142Y-72155952D01*
X119514761Y-72203571D01*
X119562380Y-72298809D01*
X119562380Y-72441666D01*
X118895714Y-71679761D02*
X119562380Y-71679761D01*
X118990952Y-71679761D02*
X118943333Y-71632142D01*
X118895714Y-71536904D01*
X118895714Y-71394047D01*
X118943333Y-71298809D01*
X119038571Y-71251190D01*
X119562380Y-71251190D01*
X118895714Y-70775000D02*
X119562380Y-70775000D01*
X118990952Y-70775000D02*
X118943333Y-70727380D01*
X118895714Y-70632142D01*
X118895714Y-70489285D01*
X118943333Y-70394047D01*
X119038571Y-70346428D01*
X119562380Y-70346428D01*
X119657619Y-70108333D02*
X119657619Y-69346428D01*
X118562380Y-68917857D02*
X118562380Y-68822619D01*
X118610000Y-68727380D01*
X118657619Y-68679761D01*
X118752857Y-68632142D01*
X118943333Y-68584523D01*
X119181428Y-68584523D01*
X119371904Y-68632142D01*
X119467142Y-68679761D01*
X119514761Y-68727380D01*
X119562380Y-68822619D01*
X119562380Y-68917857D01*
X119514761Y-69013095D01*
X119467142Y-69060714D01*
X119371904Y-69108333D01*
X119181428Y-69155952D01*
X118943333Y-69155952D01*
X118752857Y-69108333D01*
X118657619Y-69060714D01*
X118610000Y-69013095D01*
X118562380Y-68917857D01*
X119562380Y-67632142D02*
X119562380Y-68203571D01*
X119562380Y-67917857D02*
X118562380Y-67917857D01*
X118705238Y-68013095D01*
X118800476Y-68108333D01*
X118848095Y-68203571D01*
X119562380Y-67298809D02*
X118895714Y-66775000D01*
X118895714Y-67298809D02*
X119562380Y-66775000D01*
X118562380Y-66203571D02*
X118562380Y-66108333D01*
X118610000Y-66013095D01*
X118657619Y-65965476D01*
X118752857Y-65917857D01*
X118943333Y-65870238D01*
X119181428Y-65870238D01*
X119371904Y-65917857D01*
X119467142Y-65965476D01*
X119514761Y-66013095D01*
X119562380Y-66108333D01*
X119562380Y-66203571D01*
X119514761Y-66298809D01*
X119467142Y-66346428D01*
X119371904Y-66394047D01*
X119181428Y-66441666D01*
X118943333Y-66441666D01*
X118752857Y-66394047D01*
X118657619Y-66346428D01*
X118610000Y-66298809D01*
X118562380Y-66203571D01*
X118562380Y-65536904D02*
X118562380Y-64917857D01*
X118943333Y-65251190D01*
X118943333Y-65108333D01*
X118990952Y-65013095D01*
X119038571Y-64965476D01*
X119133809Y-64917857D01*
X119371904Y-64917857D01*
X119467142Y-64965476D01*
X119514761Y-65013095D01*
X119562380Y-65108333D01*
X119562380Y-65394047D01*
X119514761Y-65489285D01*
X119467142Y-65536904D01*
X113490476Y-71342380D02*
X113490476Y-70342380D01*
X113823809Y-71056666D01*
X114157142Y-70342380D01*
X114157142Y-71342380D01*
X114538095Y-70342380D02*
X115157142Y-70342380D01*
X114823809Y-70723333D01*
X114966666Y-70723333D01*
X115061904Y-70770952D01*
X115109523Y-70818571D01*
X115157142Y-70913809D01*
X115157142Y-71151904D01*
X115109523Y-71247142D01*
X115061904Y-71294761D01*
X114966666Y-71342380D01*
X114680952Y-71342380D01*
X114585714Y-71294761D01*
X114538095Y-71247142D01*
X146137142Y-73013095D02*
X146184761Y-73060714D01*
X146232380Y-73203571D01*
X146232380Y-73298809D01*
X146184761Y-73441666D01*
X146089523Y-73536904D01*
X145994285Y-73584523D01*
X145803809Y-73632142D01*
X145660952Y-73632142D01*
X145470476Y-73584523D01*
X145375238Y-73536904D01*
X145280000Y-73441666D01*
X145232380Y-73298809D01*
X145232380Y-73203571D01*
X145280000Y-73060714D01*
X145327619Y-73013095D01*
X146232380Y-72441666D02*
X146184761Y-72536904D01*
X146137142Y-72584523D01*
X146041904Y-72632142D01*
X145756190Y-72632142D01*
X145660952Y-72584523D01*
X145613333Y-72536904D01*
X145565714Y-72441666D01*
X145565714Y-72298809D01*
X145613333Y-72203571D01*
X145660952Y-72155952D01*
X145756190Y-72108333D01*
X146041904Y-72108333D01*
X146137142Y-72155952D01*
X146184761Y-72203571D01*
X146232380Y-72298809D01*
X146232380Y-72441666D01*
X145565714Y-71679761D02*
X146232380Y-71679761D01*
X145660952Y-71679761D02*
X145613333Y-71632142D01*
X145565714Y-71536904D01*
X145565714Y-71394047D01*
X145613333Y-71298809D01*
X145708571Y-71251190D01*
X146232380Y-71251190D01*
X145565714Y-70775000D02*
X146232380Y-70775000D01*
X145660952Y-70775000D02*
X145613333Y-70727380D01*
X145565714Y-70632142D01*
X145565714Y-70489285D01*
X145613333Y-70394047D01*
X145708571Y-70346428D01*
X146232380Y-70346428D01*
X146327619Y-70108333D02*
X146327619Y-69346428D01*
X145232380Y-68917857D02*
X145232380Y-68822619D01*
X145280000Y-68727380D01*
X145327619Y-68679761D01*
X145422857Y-68632142D01*
X145613333Y-68584523D01*
X145851428Y-68584523D01*
X146041904Y-68632142D01*
X146137142Y-68679761D01*
X146184761Y-68727380D01*
X146232380Y-68822619D01*
X146232380Y-68917857D01*
X146184761Y-69013095D01*
X146137142Y-69060714D01*
X146041904Y-69108333D01*
X145851428Y-69155952D01*
X145613333Y-69155952D01*
X145422857Y-69108333D01*
X145327619Y-69060714D01*
X145280000Y-69013095D01*
X145232380Y-68917857D01*
X146232380Y-67632142D02*
X146232380Y-68203571D01*
X146232380Y-67917857D02*
X145232380Y-67917857D01*
X145375238Y-68013095D01*
X145470476Y-68108333D01*
X145518095Y-68203571D01*
X146232380Y-67298809D02*
X145565714Y-66775000D01*
X145565714Y-67298809D02*
X146232380Y-66775000D01*
X145232380Y-66203571D02*
X145232380Y-66108333D01*
X145280000Y-66013095D01*
X145327619Y-65965476D01*
X145422857Y-65917857D01*
X145613333Y-65870238D01*
X145851428Y-65870238D01*
X146041904Y-65917857D01*
X146137142Y-65965476D01*
X146184761Y-66013095D01*
X146232380Y-66108333D01*
X146232380Y-66203571D01*
X146184761Y-66298809D01*
X146137142Y-66346428D01*
X146041904Y-66394047D01*
X145851428Y-66441666D01*
X145613333Y-66441666D01*
X145422857Y-66394047D01*
X145327619Y-66346428D01*
X145280000Y-66298809D01*
X145232380Y-66203571D01*
X145232380Y-65536904D02*
X145232380Y-64917857D01*
X145613333Y-65251190D01*
X145613333Y-65108333D01*
X145660952Y-65013095D01*
X145708571Y-64965476D01*
X145803809Y-64917857D01*
X146041904Y-64917857D01*
X146137142Y-64965476D01*
X146184761Y-65013095D01*
X146232380Y-65108333D01*
X146232380Y-65394047D01*
X146184761Y-65489285D01*
X146137142Y-65536904D01*
X140160476Y-71342380D02*
X140160476Y-70342380D01*
X140493809Y-71056666D01*
X140827142Y-70342380D01*
X140827142Y-71342380D01*
X141255714Y-70437619D02*
X141303333Y-70390000D01*
X141398571Y-70342380D01*
X141636666Y-70342380D01*
X141731904Y-70390000D01*
X141779523Y-70437619D01*
X141827142Y-70532857D01*
X141827142Y-70628095D01*
X141779523Y-70770952D01*
X141208095Y-71342380D01*
X141827142Y-71342380D01*
X133437142Y-73013095D02*
X133484761Y-73060714D01*
X133532380Y-73203571D01*
X133532380Y-73298809D01*
X133484761Y-73441666D01*
X133389523Y-73536904D01*
X133294285Y-73584523D01*
X133103809Y-73632142D01*
X132960952Y-73632142D01*
X132770476Y-73584523D01*
X132675238Y-73536904D01*
X132580000Y-73441666D01*
X132532380Y-73298809D01*
X132532380Y-73203571D01*
X132580000Y-73060714D01*
X132627619Y-73013095D01*
X133532380Y-72441666D02*
X133484761Y-72536904D01*
X133437142Y-72584523D01*
X133341904Y-72632142D01*
X133056190Y-72632142D01*
X132960952Y-72584523D01*
X132913333Y-72536904D01*
X132865714Y-72441666D01*
X132865714Y-72298809D01*
X132913333Y-72203571D01*
X132960952Y-72155952D01*
X133056190Y-72108333D01*
X133341904Y-72108333D01*
X133437142Y-72155952D01*
X133484761Y-72203571D01*
X133532380Y-72298809D01*
X133532380Y-72441666D01*
X132865714Y-71679761D02*
X133532380Y-71679761D01*
X132960952Y-71679761D02*
X132913333Y-71632142D01*
X132865714Y-71536904D01*
X132865714Y-71394047D01*
X132913333Y-71298809D01*
X133008571Y-71251190D01*
X133532380Y-71251190D01*
X132865714Y-70775000D02*
X133532380Y-70775000D01*
X132960952Y-70775000D02*
X132913333Y-70727380D01*
X132865714Y-70632142D01*
X132865714Y-70489285D01*
X132913333Y-70394047D01*
X133008571Y-70346428D01*
X133532380Y-70346428D01*
X133627619Y-70108333D02*
X133627619Y-69346428D01*
X132532380Y-68917857D02*
X132532380Y-68822619D01*
X132580000Y-68727380D01*
X132627619Y-68679761D01*
X132722857Y-68632142D01*
X132913333Y-68584523D01*
X133151428Y-68584523D01*
X133341904Y-68632142D01*
X133437142Y-68679761D01*
X133484761Y-68727380D01*
X133532380Y-68822619D01*
X133532380Y-68917857D01*
X133484761Y-69013095D01*
X133437142Y-69060714D01*
X133341904Y-69108333D01*
X133151428Y-69155952D01*
X132913333Y-69155952D01*
X132722857Y-69108333D01*
X132627619Y-69060714D01*
X132580000Y-69013095D01*
X132532380Y-68917857D01*
X133532380Y-67632142D02*
X133532380Y-68203571D01*
X133532380Y-67917857D02*
X132532380Y-67917857D01*
X132675238Y-68013095D01*
X132770476Y-68108333D01*
X132818095Y-68203571D01*
X133532380Y-67298809D02*
X132865714Y-66775000D01*
X132865714Y-67298809D02*
X133532380Y-66775000D01*
X132532380Y-66203571D02*
X132532380Y-66108333D01*
X132580000Y-66013095D01*
X132627619Y-65965476D01*
X132722857Y-65917857D01*
X132913333Y-65870238D01*
X133151428Y-65870238D01*
X133341904Y-65917857D01*
X133437142Y-65965476D01*
X133484761Y-66013095D01*
X133532380Y-66108333D01*
X133532380Y-66203571D01*
X133484761Y-66298809D01*
X133437142Y-66346428D01*
X133341904Y-66394047D01*
X133151428Y-66441666D01*
X132913333Y-66441666D01*
X132722857Y-66394047D01*
X132627619Y-66346428D01*
X132580000Y-66298809D01*
X132532380Y-66203571D01*
X132532380Y-65536904D02*
X132532380Y-64917857D01*
X132913333Y-65251190D01*
X132913333Y-65108333D01*
X132960952Y-65013095D01*
X133008571Y-64965476D01*
X133103809Y-64917857D01*
X133341904Y-64917857D01*
X133437142Y-64965476D01*
X133484761Y-65013095D01*
X133532380Y-65108333D01*
X133532380Y-65394047D01*
X133484761Y-65489285D01*
X133437142Y-65536904D01*
X127460476Y-71342380D02*
X127460476Y-70342380D01*
X127793809Y-71056666D01*
X128127142Y-70342380D01*
X128127142Y-71342380D01*
X129127142Y-71342380D02*
X128555714Y-71342380D01*
X128841428Y-71342380D02*
X128841428Y-70342380D01*
X128746190Y-70485238D01*
X128650952Y-70580476D01*
X128555714Y-70628095D01*
X135247142Y-118613095D02*
X135294761Y-118660714D01*
X135342380Y-118803571D01*
X135342380Y-118898809D01*
X135294761Y-119041666D01*
X135199523Y-119136904D01*
X135104285Y-119184523D01*
X134913809Y-119232142D01*
X134770952Y-119232142D01*
X134580476Y-119184523D01*
X134485238Y-119136904D01*
X134390000Y-119041666D01*
X134342380Y-118898809D01*
X134342380Y-118803571D01*
X134390000Y-118660714D01*
X134437619Y-118613095D01*
X135342380Y-118041666D02*
X135294761Y-118136904D01*
X135247142Y-118184523D01*
X135151904Y-118232142D01*
X134866190Y-118232142D01*
X134770952Y-118184523D01*
X134723333Y-118136904D01*
X134675714Y-118041666D01*
X134675714Y-117898809D01*
X134723333Y-117803571D01*
X134770952Y-117755952D01*
X134866190Y-117708333D01*
X135151904Y-117708333D01*
X135247142Y-117755952D01*
X135294761Y-117803571D01*
X135342380Y-117898809D01*
X135342380Y-118041666D01*
X134675714Y-117279761D02*
X135342380Y-117279761D01*
X134770952Y-117279761D02*
X134723333Y-117232142D01*
X134675714Y-117136904D01*
X134675714Y-116994047D01*
X134723333Y-116898809D01*
X134818571Y-116851190D01*
X135342380Y-116851190D01*
X134675714Y-116375000D02*
X135342380Y-116375000D01*
X134770952Y-116375000D02*
X134723333Y-116327380D01*
X134675714Y-116232142D01*
X134675714Y-116089285D01*
X134723333Y-115994047D01*
X134818571Y-115946428D01*
X135342380Y-115946428D01*
X135437619Y-115708333D02*
X135437619Y-114946428D01*
X134342380Y-114517857D02*
X134342380Y-114422619D01*
X134390000Y-114327380D01*
X134437619Y-114279761D01*
X134532857Y-114232142D01*
X134723333Y-114184523D01*
X134961428Y-114184523D01*
X135151904Y-114232142D01*
X135247142Y-114279761D01*
X135294761Y-114327380D01*
X135342380Y-114422619D01*
X135342380Y-114517857D01*
X135294761Y-114613095D01*
X135247142Y-114660714D01*
X135151904Y-114708333D01*
X134961428Y-114755952D01*
X134723333Y-114755952D01*
X134532857Y-114708333D01*
X134437619Y-114660714D01*
X134390000Y-114613095D01*
X134342380Y-114517857D01*
X135342380Y-113232142D02*
X135342380Y-113803571D01*
X135342380Y-113517857D02*
X134342380Y-113517857D01*
X134485238Y-113613095D01*
X134580476Y-113708333D01*
X134628095Y-113803571D01*
X135342380Y-112898809D02*
X134675714Y-112375000D01*
X134675714Y-112898809D02*
X135342380Y-112375000D01*
X134342380Y-111803571D02*
X134342380Y-111708333D01*
X134390000Y-111613095D01*
X134437619Y-111565476D01*
X134532857Y-111517857D01*
X134723333Y-111470238D01*
X134961428Y-111470238D01*
X135151904Y-111517857D01*
X135247142Y-111565476D01*
X135294761Y-111613095D01*
X135342380Y-111708333D01*
X135342380Y-111803571D01*
X135294761Y-111898809D01*
X135247142Y-111946428D01*
X135151904Y-111994047D01*
X134961428Y-112041666D01*
X134723333Y-112041666D01*
X134532857Y-111994047D01*
X134437619Y-111946428D01*
X134390000Y-111898809D01*
X134342380Y-111803571D01*
X134342380Y-111136904D02*
X134342380Y-110517857D01*
X134723333Y-110851190D01*
X134723333Y-110708333D01*
X134770952Y-110613095D01*
X134818571Y-110565476D01*
X134913809Y-110517857D01*
X135151904Y-110517857D01*
X135247142Y-110565476D01*
X135294761Y-110613095D01*
X135342380Y-110708333D01*
X135342380Y-110994047D01*
X135294761Y-111089285D01*
X135247142Y-111136904D01*
X137580952Y-113712380D02*
X137580952Y-112712380D01*
X137819047Y-112712380D01*
X137961904Y-112760000D01*
X138057142Y-112855238D01*
X138104761Y-112950476D01*
X138152380Y-113140952D01*
X138152380Y-113283809D01*
X138104761Y-113474285D01*
X138057142Y-113569523D01*
X137961904Y-113664761D01*
X137819047Y-113712380D01*
X137580952Y-113712380D01*
X138580952Y-113712380D02*
X138580952Y-112712380D01*
X138580952Y-113188571D02*
X139152380Y-113188571D01*
X139152380Y-113712380D02*
X139152380Y-112712380D01*
X139485714Y-112712380D02*
X140057142Y-112712380D01*
X139771428Y-113712380D02*
X139771428Y-112712380D01*
X140914285Y-113712380D02*
X140342857Y-113712380D01*
X140628571Y-113712380D02*
X140628571Y-112712380D01*
X140533333Y-112855238D01*
X140438095Y-112950476D01*
X140342857Y-112998095D01*
X141866666Y-113712380D02*
X141295238Y-113712380D01*
X141580952Y-113712380D02*
X141580952Y-112712380D01*
X141485714Y-112855238D01*
X141390476Y-112950476D01*
X141295238Y-112998095D01*
M02*
