G04 #@! TF.GenerationSoftware,KiCad,Pcbnew,(5.1.5)-3*
G04 #@! TF.CreationDate,2020-03-16T13:29:13+00:00*
G04 #@! TF.ProjectId,pcb schem,70636220-7363-4686-956d-2e6b69636164,rev?*
G04 #@! TF.SameCoordinates,Original*
G04 #@! TF.FileFunction,Other,Fab,Bot*
%FSLAX46Y46*%
G04 Gerber Fmt 4.6, Leading zero omitted, Abs format (unit mm)*
G04 Created by KiCad (PCBNEW (5.1.5)-3) date 2020-03-16 13:29:13*
%MOMM*%
%LPD*%
G04 APERTURE LIST*
%ADD10C,0.100000*%
%ADD11C,0.150000*%
G04 APERTURE END LIST*
D10*
X154940000Y-118110000D02*
X154940000Y-67310000D01*
X149860000Y-118110000D02*
X154940000Y-118110000D01*
X149860000Y-68310000D02*
X149860000Y-118110000D01*
X150860000Y-67310000D02*
X149860000Y-68310000D01*
X154940000Y-67310000D02*
X150860000Y-67310000D01*
D11*
X155257142Y-119062380D02*
X155066666Y-119062380D01*
X154971428Y-119110000D01*
X154876190Y-119205238D01*
X154828571Y-119395714D01*
X154828571Y-119729047D01*
X154876190Y-119919523D01*
X154971428Y-120014761D01*
X155066666Y-120062380D01*
X155257142Y-120062380D01*
X155352380Y-120014761D01*
X155447619Y-119919523D01*
X155495238Y-119729047D01*
X155495238Y-119395714D01*
X155447619Y-119205238D01*
X155352380Y-119110000D01*
X155257142Y-119062380D01*
X154495238Y-119062380D02*
X153828571Y-120062380D01*
X153828571Y-119062380D02*
X154495238Y-120062380D01*
X153019047Y-119395714D02*
X153019047Y-120062380D01*
X153257142Y-119014761D02*
X153495238Y-119729047D01*
X152876190Y-119729047D01*
X152304761Y-119062380D02*
X152209523Y-119062380D01*
X152114285Y-119110000D01*
X152066666Y-119157619D01*
X152019047Y-119252857D01*
X151971428Y-119443333D01*
X151971428Y-119681428D01*
X152019047Y-119871904D01*
X152066666Y-119967142D01*
X152114285Y-120014761D01*
X152209523Y-120062380D01*
X152304761Y-120062380D01*
X152400000Y-120014761D01*
X152447619Y-119967142D01*
X152495238Y-119871904D01*
X152542857Y-119681428D01*
X152542857Y-119443333D01*
X152495238Y-119252857D01*
X152447619Y-119157619D01*
X152400000Y-119110000D01*
X152304761Y-119062380D01*
X151542857Y-120062380D02*
X151542857Y-119062380D01*
X151542857Y-119538571D02*
X150971428Y-119538571D01*
X150971428Y-120062380D02*
X150971428Y-119062380D01*
X150542857Y-119776666D02*
X150066666Y-119776666D01*
X150638095Y-120062380D02*
X150304761Y-119062380D01*
X149971428Y-120062380D01*
X149780952Y-119062380D02*
X149209523Y-119062380D01*
X149495238Y-120062380D02*
X149495238Y-119062380D01*
X151852380Y-92376666D02*
X152566666Y-92376666D01*
X152709523Y-92329047D01*
X152804761Y-92233809D01*
X152852380Y-92090952D01*
X152852380Y-91995714D01*
X152852380Y-93376666D02*
X152852380Y-92805238D01*
X152852380Y-93090952D02*
X151852380Y-93090952D01*
X151995238Y-92995714D01*
X152090476Y-92900476D01*
X152138095Y-92805238D01*
M02*
