G04 #@! TF.GenerationSoftware,KiCad,Pcbnew,(5.1.5)-3*
G04 #@! TF.CreationDate,2020-03-16T13:29:12+00:00*
G04 #@! TF.ProjectId,pcb schem,70636220-7363-4686-956d-2e6b69636164,rev?*
G04 #@! TF.SameCoordinates,Original*
G04 #@! TF.FileFunction,Copper,L2,Bot*
G04 #@! TF.FilePolarity,Positive*
%FSLAX46Y46*%
G04 Gerber Fmt 4.6, Leading zero omitted, Abs format (unit mm)*
G04 Created by KiCad (PCBNEW (5.1.5)-3) date 2020-03-16 13:29:13*
%MOMM*%
%LPD*%
G04 APERTURE LIST*
%ADD10O,1.700000X1.700000*%
%ADD11R,1.700000X1.700000*%
%ADD12C,2.100000*%
%ADD13R,2.100000X2.100000*%
%ADD14C,0.250000*%
G04 APERTURE END LIST*
D10*
X135890000Y-83820000D03*
X135890000Y-86360000D03*
X135890000Y-88900000D03*
X135890000Y-91440000D03*
X135890000Y-93980000D03*
X135890000Y-96520000D03*
X135890000Y-99060000D03*
D11*
X135890000Y-101600000D03*
D12*
X110490000Y-86360000D03*
D13*
X110490000Y-91440000D03*
D10*
X116840000Y-73660000D03*
X114300000Y-73660000D03*
D11*
X111760000Y-73660000D03*
D10*
X143510000Y-73660000D03*
X140970000Y-73660000D03*
D11*
X138430000Y-73660000D03*
D10*
X130810000Y-73660000D03*
X128270000Y-73660000D03*
D11*
X125730000Y-73660000D03*
D10*
X153670000Y-116840000D03*
X151130000Y-116840000D03*
X153670000Y-114300000D03*
X151130000Y-114300000D03*
X153670000Y-111760000D03*
X151130000Y-111760000D03*
X153670000Y-109220000D03*
X151130000Y-109220000D03*
X153670000Y-106680000D03*
X151130000Y-106680000D03*
X153670000Y-104140000D03*
X151130000Y-104140000D03*
X153670000Y-101600000D03*
X151130000Y-101600000D03*
X153670000Y-99060000D03*
X151130000Y-99060000D03*
X153670000Y-96520000D03*
X151130000Y-96520000D03*
X153670000Y-93980000D03*
X151130000Y-93980000D03*
X153670000Y-91440000D03*
X151130000Y-91440000D03*
X153670000Y-88900000D03*
X151130000Y-88900000D03*
X153670000Y-86360000D03*
X151130000Y-86360000D03*
X153670000Y-83820000D03*
X151130000Y-83820000D03*
X153670000Y-81280000D03*
X151130000Y-81280000D03*
X153670000Y-78740000D03*
X151130000Y-78740000D03*
X153670000Y-76200000D03*
X151130000Y-76200000D03*
X153670000Y-73660000D03*
X151130000Y-73660000D03*
X153670000Y-71120000D03*
X151130000Y-71120000D03*
X153670000Y-68580000D03*
D11*
X151130000Y-68580000D03*
D10*
X137160000Y-110490000D03*
X139700000Y-110490000D03*
D11*
X142240000Y-110490000D03*
D14*
X116840000Y-77470000D02*
X116840000Y-73660000D01*
X118110000Y-78740000D02*
X116840000Y-77470000D01*
X142240000Y-78740000D02*
X118110000Y-78740000D01*
X143510000Y-73660000D02*
X143510000Y-77470000D01*
X143510000Y-77470000D02*
X142240000Y-78740000D01*
X130810000Y-73660000D02*
X129540000Y-74930000D01*
X129540000Y-74930000D02*
X129540000Y-77470000D01*
X129540000Y-77470000D02*
X128270000Y-78740000D01*
X118110000Y-78740000D02*
X115570000Y-78740000D01*
X115570000Y-78740000D02*
X110490000Y-83820000D01*
X110490000Y-83820000D02*
X110490000Y-86360000D01*
X116840000Y-107950000D02*
X119380000Y-110490000D01*
X116840000Y-88900000D02*
X116840000Y-107950000D01*
X110490000Y-86360000D02*
X114300000Y-86360000D01*
X119380000Y-110490000D02*
X137160000Y-110490000D01*
X114300000Y-86360000D02*
X116840000Y-88900000D01*
X114300000Y-73660000D02*
X114300000Y-77470000D01*
X114300000Y-77470000D02*
X107950000Y-83820000D01*
X107950000Y-83820000D02*
X107950000Y-90170000D01*
X107950000Y-90170000D02*
X109220000Y-91440000D01*
X109220000Y-91440000D02*
X110490000Y-91440000D01*
M02*
