G04 #@! TF.GenerationSoftware,KiCad,Pcbnew,(5.1.5)-3*
G04 #@! TF.CreationDate,2020-03-16T13:29:13+00:00*
G04 #@! TF.ProjectId,pcb schem,70636220-7363-4686-956d-2e6b69636164,rev?*
G04 #@! TF.SameCoordinates,Original*
G04 #@! TF.FileFunction,Legend,Top*
G04 #@! TF.FilePolarity,Positive*
%FSLAX46Y46*%
G04 Gerber Fmt 4.6, Leading zero omitted, Abs format (unit mm)*
G04 Created by KiCad (PCBNEW (5.1.5)-3) date 2020-03-16 13:29:13*
%MOMM*%
%LPD*%
G04 APERTURE LIST*
%ADD10C,0.120000*%
%ADD11C,0.150000*%
G04 APERTURE END LIST*
D10*
X106680000Y-123190000D02*
G75*
G02X104140000Y-120650000I0J2540000D01*
G01*
X104140000Y-64770000D02*
X104140000Y-120650000D01*
X156210000Y-123190000D02*
X106680000Y-123190000D01*
X156210000Y-123190000D02*
G75*
G03X158750000Y-120650000I0J2540000D01*
G01*
X158750000Y-64770000D02*
X158750000Y-120650000D01*
X104140000Y-64770000D02*
G75*
G02X106680000Y-62230000I2540000J0D01*
G01*
X158750000Y-64770000D02*
G75*
G03X156210000Y-62230000I-2540000J0D01*
G01*
X106680000Y-62230000D02*
X156210000Y-62230000D01*
X137160000Y-102870000D02*
X135890000Y-102870000D01*
X137160000Y-101600000D02*
X137160000Y-102870000D01*
X134847071Y-83440000D02*
X134450000Y-83440000D01*
X134847071Y-84200000D02*
X134450000Y-84200000D01*
X125790000Y-83440000D02*
X131790000Y-83440000D01*
X125790000Y-84200000D02*
X125790000Y-83440000D01*
X131790000Y-84200000D02*
X125790000Y-84200000D01*
X134450000Y-85090000D02*
X131790000Y-85090000D01*
X134847071Y-85980000D02*
X134450000Y-85980000D01*
X134847071Y-86740000D02*
X134450000Y-86740000D01*
X125790000Y-85980000D02*
X131790000Y-85980000D01*
X125790000Y-86740000D02*
X125790000Y-85980000D01*
X131790000Y-86740000D02*
X125790000Y-86740000D01*
X134450000Y-87630000D02*
X131790000Y-87630000D01*
X134847071Y-88520000D02*
X134450000Y-88520000D01*
X134847071Y-89280000D02*
X134450000Y-89280000D01*
X125790000Y-88520000D02*
X131790000Y-88520000D01*
X125790000Y-89280000D02*
X125790000Y-88520000D01*
X131790000Y-89280000D02*
X125790000Y-89280000D01*
X134450000Y-90170000D02*
X131790000Y-90170000D01*
X134847071Y-91060000D02*
X134450000Y-91060000D01*
X134847071Y-91820000D02*
X134450000Y-91820000D01*
X125790000Y-91060000D02*
X131790000Y-91060000D01*
X125790000Y-91820000D02*
X125790000Y-91060000D01*
X131790000Y-91820000D02*
X125790000Y-91820000D01*
X134450000Y-92710000D02*
X131790000Y-92710000D01*
X134847071Y-93600000D02*
X134450000Y-93600000D01*
X134847071Y-94360000D02*
X134450000Y-94360000D01*
X125790000Y-93600000D02*
X131790000Y-93600000D01*
X125790000Y-94360000D02*
X125790000Y-93600000D01*
X131790000Y-94360000D02*
X125790000Y-94360000D01*
X134450000Y-95250000D02*
X131790000Y-95250000D01*
X134847071Y-96140000D02*
X134450000Y-96140000D01*
X134847071Y-96900000D02*
X134450000Y-96900000D01*
X125790000Y-96140000D02*
X131790000Y-96140000D01*
X125790000Y-96900000D02*
X125790000Y-96140000D01*
X131790000Y-96900000D02*
X125790000Y-96900000D01*
X134450000Y-97790000D02*
X131790000Y-97790000D01*
X134847071Y-98680000D02*
X134450000Y-98680000D01*
X134847071Y-99440000D02*
X134450000Y-99440000D01*
X125790000Y-98680000D02*
X131790000Y-98680000D01*
X125790000Y-99440000D02*
X125790000Y-98680000D01*
X131790000Y-99440000D02*
X125790000Y-99440000D01*
X134450000Y-100330000D02*
X131790000Y-100330000D01*
X134780000Y-101220000D02*
X134450000Y-101220000D01*
X134780000Y-101980000D02*
X134450000Y-101980000D01*
X131790000Y-101320000D02*
X125790000Y-101320000D01*
X131790000Y-101440000D02*
X125790000Y-101440000D01*
X131790000Y-101560000D02*
X125790000Y-101560000D01*
X131790000Y-101680000D02*
X125790000Y-101680000D01*
X131790000Y-101800000D02*
X125790000Y-101800000D01*
X131790000Y-101920000D02*
X125790000Y-101920000D01*
X125790000Y-101220000D02*
X131790000Y-101220000D01*
X125790000Y-101980000D02*
X125790000Y-101220000D01*
X131790000Y-101980000D02*
X125790000Y-101980000D01*
X131790000Y-102930000D02*
X134450000Y-102930000D01*
X131790000Y-82490000D02*
X131790000Y-102930000D01*
X134450000Y-82490000D02*
X131790000Y-82490000D01*
X134450000Y-102930000D02*
X134450000Y-82490000D01*
X114840000Y-94280000D02*
X114840000Y-93780000D01*
X114100000Y-94280000D02*
X114840000Y-94280000D01*
X106090000Y-85110000D02*
X107090000Y-85110000D01*
X106090000Y-87610000D02*
X107090000Y-87610000D01*
X107090000Y-87610000D02*
X107090000Y-85110000D01*
X106090000Y-87610000D02*
X106090000Y-85110000D01*
X111340000Y-87384000D02*
X111400000Y-87444000D01*
X109405000Y-85449000D02*
X109445000Y-85489000D01*
X111535000Y-87230000D02*
X111575000Y-87270000D01*
X109580000Y-85275000D02*
X109639000Y-85335000D01*
X106090000Y-90190000D02*
X107090000Y-90190000D01*
X106090000Y-92690000D02*
X107090000Y-92690000D01*
X107090000Y-92690000D02*
X107090000Y-90190000D01*
X106090000Y-92690000D02*
X106090000Y-90190000D01*
X106030000Y-83760000D02*
X114600000Y-83760000D01*
X106030000Y-94040000D02*
X114600000Y-94040000D01*
X114600000Y-94040000D02*
X114600000Y-83760000D01*
X106030000Y-94040000D02*
X106030000Y-83760000D01*
X107940000Y-94040000D02*
X107940000Y-83760000D01*
X112940000Y-94040000D02*
X112940000Y-83760000D01*
X114040000Y-94040000D02*
X114040000Y-83760000D01*
X111920000Y-86360000D02*
G75*
G03X111920000Y-86360000I-1430000J0D01*
G01*
X111920940Y-91415720D02*
G75*
G02X111776000Y-92068000I-1430940J-24280D01*
G01*
X111116746Y-92726611D02*
G75*
G02X109862000Y-92726000I-626746J1286611D01*
G01*
X109204176Y-92067362D02*
G75*
G02X109204000Y-90813000I1285824J627362D01*
G01*
X109862638Y-90154176D02*
G75*
G02X111117000Y-90154000I627362J-1285824D01*
G01*
X111775275Y-90813129D02*
G75*
G02X111920000Y-91440000I-1285275J-626871D01*
G01*
X110490000Y-74930000D02*
X110490000Y-73660000D01*
X111760000Y-74930000D02*
X110490000Y-74930000D01*
X117220000Y-72617071D02*
X117220000Y-72220000D01*
X116460000Y-72617071D02*
X116460000Y-72220000D01*
X117220000Y-63560000D02*
X117220000Y-69560000D01*
X116460000Y-63560000D02*
X117220000Y-63560000D01*
X116460000Y-69560000D02*
X116460000Y-63560000D01*
X115570000Y-72220000D02*
X115570000Y-69560000D01*
X114680000Y-72617071D02*
X114680000Y-72220000D01*
X113920000Y-72617071D02*
X113920000Y-72220000D01*
X114680000Y-63560000D02*
X114680000Y-69560000D01*
X113920000Y-63560000D02*
X114680000Y-63560000D01*
X113920000Y-69560000D02*
X113920000Y-63560000D01*
X113030000Y-72220000D02*
X113030000Y-69560000D01*
X112140000Y-72550000D02*
X112140000Y-72220000D01*
X111380000Y-72550000D02*
X111380000Y-72220000D01*
X112040000Y-69560000D02*
X112040000Y-63560000D01*
X111920000Y-69560000D02*
X111920000Y-63560000D01*
X111800000Y-69560000D02*
X111800000Y-63560000D01*
X111680000Y-69560000D02*
X111680000Y-63560000D01*
X111560000Y-69560000D02*
X111560000Y-63560000D01*
X111440000Y-69560000D02*
X111440000Y-63560000D01*
X112140000Y-63560000D02*
X112140000Y-69560000D01*
X111380000Y-63560000D02*
X112140000Y-63560000D01*
X111380000Y-69560000D02*
X111380000Y-63560000D01*
X110430000Y-69560000D02*
X110430000Y-72220000D01*
X118170000Y-69560000D02*
X110430000Y-69560000D01*
X118170000Y-72220000D02*
X118170000Y-69560000D01*
X110430000Y-72220000D02*
X118170000Y-72220000D01*
X137160000Y-74930000D02*
X137160000Y-73660000D01*
X138430000Y-74930000D02*
X137160000Y-74930000D01*
X143890000Y-72617071D02*
X143890000Y-72220000D01*
X143130000Y-72617071D02*
X143130000Y-72220000D01*
X143890000Y-63560000D02*
X143890000Y-69560000D01*
X143130000Y-63560000D02*
X143890000Y-63560000D01*
X143130000Y-69560000D02*
X143130000Y-63560000D01*
X142240000Y-72220000D02*
X142240000Y-69560000D01*
X141350000Y-72617071D02*
X141350000Y-72220000D01*
X140590000Y-72617071D02*
X140590000Y-72220000D01*
X141350000Y-63560000D02*
X141350000Y-69560000D01*
X140590000Y-63560000D02*
X141350000Y-63560000D01*
X140590000Y-69560000D02*
X140590000Y-63560000D01*
X139700000Y-72220000D02*
X139700000Y-69560000D01*
X138810000Y-72550000D02*
X138810000Y-72220000D01*
X138050000Y-72550000D02*
X138050000Y-72220000D01*
X138710000Y-69560000D02*
X138710000Y-63560000D01*
X138590000Y-69560000D02*
X138590000Y-63560000D01*
X138470000Y-69560000D02*
X138470000Y-63560000D01*
X138350000Y-69560000D02*
X138350000Y-63560000D01*
X138230000Y-69560000D02*
X138230000Y-63560000D01*
X138110000Y-69560000D02*
X138110000Y-63560000D01*
X138810000Y-63560000D02*
X138810000Y-69560000D01*
X138050000Y-63560000D02*
X138810000Y-63560000D01*
X138050000Y-69560000D02*
X138050000Y-63560000D01*
X137100000Y-69560000D02*
X137100000Y-72220000D01*
X144840000Y-69560000D02*
X137100000Y-69560000D01*
X144840000Y-72220000D02*
X144840000Y-69560000D01*
X137100000Y-72220000D02*
X144840000Y-72220000D01*
X124460000Y-74930000D02*
X124460000Y-73660000D01*
X125730000Y-74930000D02*
X124460000Y-74930000D01*
X131190000Y-72617071D02*
X131190000Y-72220000D01*
X130430000Y-72617071D02*
X130430000Y-72220000D01*
X131190000Y-63560000D02*
X131190000Y-69560000D01*
X130430000Y-63560000D02*
X131190000Y-63560000D01*
X130430000Y-69560000D02*
X130430000Y-63560000D01*
X129540000Y-72220000D02*
X129540000Y-69560000D01*
X128650000Y-72617071D02*
X128650000Y-72220000D01*
X127890000Y-72617071D02*
X127890000Y-72220000D01*
X128650000Y-63560000D02*
X128650000Y-69560000D01*
X127890000Y-63560000D02*
X128650000Y-63560000D01*
X127890000Y-69560000D02*
X127890000Y-63560000D01*
X127000000Y-72220000D02*
X127000000Y-69560000D01*
X126110000Y-72550000D02*
X126110000Y-72220000D01*
X125350000Y-72550000D02*
X125350000Y-72220000D01*
X126010000Y-69560000D02*
X126010000Y-63560000D01*
X125890000Y-69560000D02*
X125890000Y-63560000D01*
X125770000Y-69560000D02*
X125770000Y-63560000D01*
X125650000Y-69560000D02*
X125650000Y-63560000D01*
X125530000Y-69560000D02*
X125530000Y-63560000D01*
X125410000Y-69560000D02*
X125410000Y-63560000D01*
X126110000Y-63560000D02*
X126110000Y-69560000D01*
X125350000Y-63560000D02*
X126110000Y-63560000D01*
X125350000Y-69560000D02*
X125350000Y-63560000D01*
X124400000Y-69560000D02*
X124400000Y-72220000D01*
X132140000Y-69560000D02*
X124400000Y-69560000D01*
X132140000Y-72220000D02*
X132140000Y-69560000D01*
X124400000Y-72220000D02*
X132140000Y-72220000D01*
X143510000Y-109220000D02*
X143510000Y-110490000D01*
X142240000Y-109220000D02*
X143510000Y-109220000D01*
X136780000Y-111532929D02*
X136780000Y-111930000D01*
X137540000Y-111532929D02*
X137540000Y-111930000D01*
X136780000Y-120590000D02*
X136780000Y-114590000D01*
X137540000Y-120590000D02*
X136780000Y-120590000D01*
X137540000Y-114590000D02*
X137540000Y-120590000D01*
X138430000Y-111930000D02*
X138430000Y-114590000D01*
X139320000Y-111532929D02*
X139320000Y-111930000D01*
X140080000Y-111532929D02*
X140080000Y-111930000D01*
X139320000Y-120590000D02*
X139320000Y-114590000D01*
X140080000Y-120590000D02*
X139320000Y-120590000D01*
X140080000Y-114590000D02*
X140080000Y-120590000D01*
X140970000Y-111930000D02*
X140970000Y-114590000D01*
X141860000Y-111600000D02*
X141860000Y-111930000D01*
X142620000Y-111600000D02*
X142620000Y-111930000D01*
X141960000Y-114590000D02*
X141960000Y-120590000D01*
X142080000Y-114590000D02*
X142080000Y-120590000D01*
X142200000Y-114590000D02*
X142200000Y-120590000D01*
X142320000Y-114590000D02*
X142320000Y-120590000D01*
X142440000Y-114590000D02*
X142440000Y-120590000D01*
X142560000Y-114590000D02*
X142560000Y-120590000D01*
X141860000Y-120590000D02*
X141860000Y-114590000D01*
X142620000Y-120590000D02*
X141860000Y-120590000D01*
X142620000Y-114590000D02*
X142620000Y-120590000D01*
X143570000Y-114590000D02*
X143570000Y-111930000D01*
X135830000Y-114590000D02*
X143570000Y-114590000D01*
X135830000Y-111930000D02*
X135830000Y-114590000D01*
X143570000Y-111930000D02*
X135830000Y-111930000D01*
D11*
X128243095Y-104322380D02*
X128243095Y-103322380D01*
X128576428Y-104036666D01*
X128909761Y-103322380D01*
X128909761Y-104322380D01*
X129385952Y-104322380D02*
X129385952Y-103322380D01*
X129766904Y-103322380D01*
X129862142Y-103370000D01*
X129909761Y-103417619D01*
X129957380Y-103512857D01*
X129957380Y-103655714D01*
X129909761Y-103750952D01*
X129862142Y-103798571D01*
X129766904Y-103846190D01*
X129385952Y-103846190D01*
X130385952Y-103322380D02*
X130385952Y-104131904D01*
X130433571Y-104227142D01*
X130481190Y-104274761D01*
X130576428Y-104322380D01*
X130766904Y-104322380D01*
X130862142Y-104274761D01*
X130909761Y-104227142D01*
X130957380Y-104131904D01*
X130957380Y-103322380D01*
X131862142Y-103322380D02*
X131671666Y-103322380D01*
X131576428Y-103370000D01*
X131528809Y-103417619D01*
X131433571Y-103560476D01*
X131385952Y-103750952D01*
X131385952Y-104131904D01*
X131433571Y-104227142D01*
X131481190Y-104274761D01*
X131576428Y-104322380D01*
X131766904Y-104322380D01*
X131862142Y-104274761D01*
X131909761Y-104227142D01*
X131957380Y-104131904D01*
X131957380Y-103893809D01*
X131909761Y-103798571D01*
X131862142Y-103750952D01*
X131766904Y-103703333D01*
X131576428Y-103703333D01*
X131481190Y-103750952D01*
X131433571Y-103798571D01*
X131385952Y-103893809D01*
X132576428Y-103322380D02*
X132671666Y-103322380D01*
X132766904Y-103370000D01*
X132814523Y-103417619D01*
X132862142Y-103512857D01*
X132909761Y-103703333D01*
X132909761Y-103941428D01*
X132862142Y-104131904D01*
X132814523Y-104227142D01*
X132766904Y-104274761D01*
X132671666Y-104322380D01*
X132576428Y-104322380D01*
X132481190Y-104274761D01*
X132433571Y-104227142D01*
X132385952Y-104131904D01*
X132338333Y-103941428D01*
X132338333Y-103703333D01*
X132385952Y-103512857D01*
X132433571Y-103417619D01*
X132481190Y-103370000D01*
X132576428Y-103322380D01*
X133814523Y-103322380D02*
X133338333Y-103322380D01*
X133290714Y-103798571D01*
X133338333Y-103750952D01*
X133433571Y-103703333D01*
X133671666Y-103703333D01*
X133766904Y-103750952D01*
X133814523Y-103798571D01*
X133862142Y-103893809D01*
X133862142Y-104131904D01*
X133814523Y-104227142D01*
X133766904Y-104274761D01*
X133671666Y-104322380D01*
X133433571Y-104322380D01*
X133338333Y-104274761D01*
X133290714Y-104227142D01*
X134481190Y-103322380D02*
X134576428Y-103322380D01*
X134671666Y-103370000D01*
X134719285Y-103417619D01*
X134766904Y-103512857D01*
X134814523Y-103703333D01*
X134814523Y-103941428D01*
X134766904Y-104131904D01*
X134719285Y-104227142D01*
X134671666Y-104274761D01*
X134576428Y-104322380D01*
X134481190Y-104322380D01*
X134385952Y-104274761D01*
X134338333Y-104227142D01*
X134290714Y-104131904D01*
X134243095Y-103941428D01*
X134243095Y-103703333D01*
X134290714Y-103512857D01*
X134338333Y-103417619D01*
X134385952Y-103370000D01*
X134481190Y-103322380D01*
X105434761Y-92876190D02*
X105482380Y-92780952D01*
X105482380Y-92590476D01*
X105434761Y-92495238D01*
X105339523Y-92447619D01*
X105291904Y-92447619D01*
X105196666Y-92495238D01*
X105149047Y-92590476D01*
X105149047Y-92733333D01*
X105101428Y-92828571D01*
X105006190Y-92876190D01*
X104958571Y-92876190D01*
X104863333Y-92828571D01*
X104815714Y-92733333D01*
X104815714Y-92590476D01*
X104863333Y-92495238D01*
X105434761Y-91638095D02*
X105482380Y-91733333D01*
X105482380Y-91923809D01*
X105434761Y-92019047D01*
X105339523Y-92066666D01*
X104958571Y-92066666D01*
X104863333Y-92019047D01*
X104815714Y-91923809D01*
X104815714Y-91733333D01*
X104863333Y-91638095D01*
X104958571Y-91590476D01*
X105053809Y-91590476D01*
X105149047Y-92066666D01*
X105482380Y-91161904D02*
X104815714Y-91161904D01*
X105006190Y-91161904D02*
X104910952Y-91114285D01*
X104863333Y-91066666D01*
X104815714Y-90971428D01*
X104815714Y-90876190D01*
X104815714Y-90638095D02*
X105482380Y-90400000D01*
X104815714Y-90161904D01*
X105482380Y-89638095D02*
X105434761Y-89733333D01*
X105387142Y-89780952D01*
X105291904Y-89828571D01*
X105006190Y-89828571D01*
X104910952Y-89780952D01*
X104863333Y-89733333D01*
X104815714Y-89638095D01*
X104815714Y-89495238D01*
X104863333Y-89400000D01*
X104910952Y-89352380D01*
X105006190Y-89304761D01*
X105291904Y-89304761D01*
X105387142Y-89352380D01*
X105434761Y-89400000D01*
X105482380Y-89495238D01*
X105482380Y-89638095D01*
X104482380Y-88971428D02*
X104482380Y-88352380D01*
X104863333Y-88685714D01*
X104863333Y-88542857D01*
X104910952Y-88447619D01*
X104958571Y-88400000D01*
X105053809Y-88352380D01*
X105291904Y-88352380D01*
X105387142Y-88400000D01*
X105434761Y-88447619D01*
X105482380Y-88542857D01*
X105482380Y-88828571D01*
X105434761Y-88923809D01*
X105387142Y-88971428D01*
X105577619Y-88161904D02*
X105577619Y-87400000D01*
X104482380Y-86685714D02*
X104482380Y-87161904D01*
X104958571Y-87209523D01*
X104910952Y-87161904D01*
X104863333Y-87066666D01*
X104863333Y-86828571D01*
X104910952Y-86733333D01*
X104958571Y-86685714D01*
X105053809Y-86638095D01*
X105291904Y-86638095D01*
X105387142Y-86685714D01*
X105434761Y-86733333D01*
X105482380Y-86828571D01*
X105482380Y-87066666D01*
X105434761Y-87161904D01*
X105387142Y-87209523D01*
X104815714Y-86304761D02*
X105482380Y-86066666D01*
X104815714Y-85828571D01*
X105482380Y-84923809D02*
X105482380Y-85495238D01*
X105482380Y-85209523D02*
X104482380Y-85209523D01*
X104625238Y-85304761D01*
X104720476Y-85400000D01*
X104768095Y-85495238D01*
X109942380Y-70084523D02*
X108942380Y-70084523D01*
X109656666Y-69751190D01*
X108942380Y-69417857D01*
X109942380Y-69417857D01*
X108942380Y-69036904D02*
X108942380Y-68417857D01*
X109323333Y-68751190D01*
X109323333Y-68608333D01*
X109370952Y-68513095D01*
X109418571Y-68465476D01*
X109513809Y-68417857D01*
X109751904Y-68417857D01*
X109847142Y-68465476D01*
X109894761Y-68513095D01*
X109942380Y-68608333D01*
X109942380Y-68894047D01*
X109894761Y-68989285D01*
X109847142Y-69036904D01*
X136612380Y-70084523D02*
X135612380Y-70084523D01*
X136326666Y-69751190D01*
X135612380Y-69417857D01*
X136612380Y-69417857D01*
X135707619Y-68989285D02*
X135660000Y-68941666D01*
X135612380Y-68846428D01*
X135612380Y-68608333D01*
X135660000Y-68513095D01*
X135707619Y-68465476D01*
X135802857Y-68417857D01*
X135898095Y-68417857D01*
X136040952Y-68465476D01*
X136612380Y-69036904D01*
X136612380Y-68417857D01*
X123912380Y-70084523D02*
X122912380Y-70084523D01*
X123626666Y-69751190D01*
X122912380Y-69417857D01*
X123912380Y-69417857D01*
X123912380Y-68417857D02*
X123912380Y-68989285D01*
X123912380Y-68703571D02*
X122912380Y-68703571D01*
X123055238Y-68798809D01*
X123150476Y-68894047D01*
X123198095Y-68989285D01*
X144962380Y-116994047D02*
X143962380Y-116994047D01*
X143962380Y-116755952D01*
X144010000Y-116613095D01*
X144105238Y-116517857D01*
X144200476Y-116470238D01*
X144390952Y-116422619D01*
X144533809Y-116422619D01*
X144724285Y-116470238D01*
X144819523Y-116517857D01*
X144914761Y-116613095D01*
X144962380Y-116755952D01*
X144962380Y-116994047D01*
X144962380Y-115994047D02*
X143962380Y-115994047D01*
X144438571Y-115994047D02*
X144438571Y-115422619D01*
X144962380Y-115422619D02*
X143962380Y-115422619D01*
X143962380Y-115089285D02*
X143962380Y-114517857D01*
X144962380Y-114803571D02*
X143962380Y-114803571D01*
X144962380Y-113660714D02*
X144962380Y-114232142D01*
X144962380Y-113946428D02*
X143962380Y-113946428D01*
X144105238Y-114041666D01*
X144200476Y-114136904D01*
X144248095Y-114232142D01*
X144962380Y-112708333D02*
X144962380Y-113279761D01*
X144962380Y-112994047D02*
X143962380Y-112994047D01*
X144105238Y-113089285D01*
X144200476Y-113184523D01*
X144248095Y-113279761D01*
M02*
